<?xml version="1.0" standalone="no"?>
<!DOCTYPE svg PUBLIC "-//W3C//DTD SVG 20010904//EN"
 "http://www.w3.org/TR/2001/REC-SVG-20010904/DTD/svg10.dtd">
<svg version="1.0" xmlns="http://www.w3.org/2000/svg"
 width="386.000000pt" height="386.000000pt" viewBox="0 0 386.000000 386.000000"
 preserveAspectRatio="xMidYMid meet">
<metadata>
Created by potrace 1.11, written by Peter Selinger 2001-2013
</metadata>
<g transform="translate(0.000000,386.000000) scale(0.100000,-0.100000)"
fill="#000000" stroke="none">
<path d="M79 3837 c-18 -12 -44 -38 -56 -56 l-23 -34 2 -1823 3 -1823 21 -27
c11 -15 33 -37 48 -48 l27 -21 1812 -3 1812 -2 45 22 c33 17 51 35 68 68 l22
45 -2 1812 -3 1812 -21 27 c-11 15 -33 37 -48 48 l-27 21 -1823 3 -1823 2 -34
-23z m2068 -247 c106 -27 282 -116 367 -187 148 -125 271 -322 322 -518 38
-143 44 -343 15 -472 -47 -212 -121 -345 -280 -503 -131 -130 -209 -180 -357
-229 -327 -109 -670 -28 -928 218 -177 170 -282 401 -302 666 -15 195 62 474
177 642 82 119 238 253 376 322 50 25 197 69 273 81 78 13 246 3 337 -20z
m180 -2235 c51 -25 123 -96 123 -121 0 -13 -84 -64 -106 -64 -7 0 -28 14 -46
30 -42 39 -94 54 -151 46 -157 -24 -227 -226 -126 -365 35 -49 75 -71 143 -78
96 -10 167 38 154 104 -3 15 -15 18 -91 21 l-87 3 0 63 c0 49 4 65 16 70 20 8
278 8 298 0 14 -5 16 -27 16 -139 l0 -133 -32 -31 c-18 -18 -62 -47 -98 -64
-59 -29 -73 -32 -160 -32 -87 0 -101 3 -161 32 -132 65 -193 169 -193 328 0
149 59 256 173 319 98 53 233 57 328 11z m-1759 -237 c48 -142 90 -258 93
-258 3 0 21 42 38 93 18 50 58 166 89 257 l57 165 83 3 c45 2 82 0 82 -3 0 -3
-53 -151 -119 -328 -65 -177 -122 -332 -125 -344 -9 -29 -33 -35 -125 -31
l-73 3 -33 90 c-18 50 -73 202 -124 340 -50 137 -91 256 -91 263 0 10 19 12
80 10 l81 -3 87 -257z m1080 190 l3 -68 -163 -2 -163 -3 0 -65 0 -65 155 -3
c85 -1 157 -7 160 -12 3 -5 3 -35 0 -67 l-5 -58 -146 -1 c-81 -1 -152 -4 -157
-8 -6 -3 -10 -36 -9 -74 l2 -67 160 -5 160 -5 0 -65 0 -65 -230 0 -230 0 -3
340 c-1 187 0 346 3 353 3 10 55 12 232 10 l228 -3 3 -67z m1494 -123 c38
-104 96 -260 128 -345 32 -85 56 -158 54 -162 -3 -5 -39 -8 -80 -8 l-75 0 -18
43 c-10 23 -48 132 -85 242 -73 219 -81 237 -94 217 -5 -7 -44 -117 -87 -245
-43 -128 -82 -238 -88 -244 -6 -9 -36 -13 -84 -13 l-75 0 5 28 c3 16 58 169
121 340 64 171 116 315 116 321 0 16 22 20 109 18 l85 -2 68 -190z m-1839
-747 c15 -7 17 -24 17 -123 0 -106 -1 -115 -22 -129 -34 -24 -123 -21 -148 4
-17 17 -20 33 -20 123 0 86 3 107 18 120 29 26 109 29 155 5z m1780 0 c15 -7
17 -24 17 -123 0 -106 -1 -115 -22 -129 -34 -24 -123 -21 -148 4 -17 17 -20
33 -20 123 0 86 3 107 18 120 28 25 109 28 155 5z m-2539 -4 c21 -20 21 -102
0 -132 -12 -18 -25 -22 -70 -22 l-54 0 0 -40 c0 -30 4 -40 16 -40 9 0 14 -6
12 -12 -6 -16 -100 -17 -105 -2 -2 6 5 14 17 17 18 5 20 13 20 110 0 98 -1
105 -21 110 -47 13 -4 27 81 27 67 0 92 -4 104 -16z m367 6 c17 -10 19 -22 19
-130 0 -141 -3 -145 -103 -138 -80 6 -87 17 -87 138 0 126 9 140 91 140 33 0
69 -5 80 -10z m704 0 c3 -6 -5 -14 -20 -20 -26 -10 -26 -10 -23 -112 l3 -103
40 0 c32 0 42 5 52 25 7 14 18 25 25 25 19 0 22 -59 4 -74 -19 -16 -188 -11
-194 7 -2 6 3 12 12 12 14 0 16 16 16 110 0 91 -3 110 -15 110 -8 0 -15 7 -15
15 0 11 13 15 54 15 30 0 58 -5 61 -10z m699 -12 c9 -12 16 -41 16 -63 0 -66
-20 -85 -91 -85 l-59 0 0 -40 c0 -33 3 -40 20 -40 11 0 20 -7 20 -16 0 -12
-10 -14 -52 -12 -52 3 -75 21 -38 31 18 5 20 13 20 110 0 96 -2 105 -20 110
-11 3 -20 10 -20 16 0 7 33 11 94 11 87 0 96 -2 110 -22z m377 12 c15 -9 19
-22 19 -69 0 -50 -3 -61 -22 -74 -23 -15 -23 -15 -4 -48 10 -19 28 -42 40 -51
19 -15 19 -17 3 -23 -29 -12 -46 2 -71 60 -22 49 -28 55 -55 55 -29 0 -31 -2
-31 -40 0 -26 6 -42 16 -48 26 -15 7 -32 -36 -32 -43 0 -62 17 -36 32 23 13
24 218 1 218 -8 0 -15 7 -15 15 0 12 16 15 86 15 47 0 94 -5 105 -10z m762 -3
c22 -16 28 -72 7 -72 -8 0 -17 11 -20 25 -5 22 -12 25 -59 28 l-52 3 3 -38 c3
-37 4 -38 59 -53 74 -20 89 -34 89 -81 0 -62 -28 -82 -102 -77 -65 5 -91 24
-86 63 4 28 26 25 41 -5 10 -20 21 -26 53 -28 51 -4 72 16 58 55 -7 21 -20 29
-69 42 -44 12 -63 22 -72 41 -14 27 -10 74 8 97 15 17 119 18 142 0z"/>
<path d="M1715 3471 c-111 -33 -211 -85 -296 -154 -85 -68 -127 -115 -191
-218 -52 -83 -127 -273 -114 -287 4 -4 12 0 17 9 25 45 106 143 156 189 121
110 230 168 399 210 76 19 107 22 219 18 113 -4 143 -9 230 -39 127 -42 170
-78 169 -138 -2 -56 -25 -86 -92 -120 -68 -34 -150 -118 -186 -190 -16 -30
-32 -86 -39 -132 -10 -70 -9 -89 6 -147 62 -235 280 -369 494 -304 181 55 261
175 271 408 11 268 -78 504 -257 685 -79 79 -190 152 -291 190 -147 56 -351
64 -495 20z"/>
<path d="M1748 3116 c-101 -18 -138 -31 -233 -80 -231 -118 -439 -454 -396
-639 15 -66 87 -217 140 -296 83 -122 209 -226 348 -287 156 -69 370 -85 529
-38 105 30 214 86 301 155 63 51 137 129 129 137 -3 2 -26 -3 -53 -12 -78 -26
-132 -29 -212 -12 -113 24 -194 66 -266 139 -109 112 -157 224 -158 371 -1
161 47 283 157 392 39 38 88 78 110 88 21 10 34 22 30 26 -5 4 -45 19 -89 33
-102 32 -233 41 -337 23z"/>
<path d="M1169 403 c-1 -5 -2 -48 -3 -96 -3 -100 4 -111 72 -105 l37 3 3 103
3 102 -56 0 c-30 0 -55 -3 -56 -7z"/>
<path d="M2947 403 c-4 -3 -7 -44 -7 -89 0 -100 11 -117 74 -112 l41 3 3 103
3 102 -54 0 c-30 0 -57 -3 -60 -7z"/>
<path d="M420 360 l0 -51 48 3 47 3 0 45 0 45 -47 3 -48 3 0 -51z"/>
<path d="M782 308 l3 -103 55 0 55 0 3 103 3 102 -61 0 -61 0 3 -102z"/>
<path d="M2182 363 c3 -45 5 -48 32 -51 15 -2 39 -1 53 3 21 5 24 10 21 48
l-3 42 -53 3 -53 3 3 -48z"/>
<path d="M2572 368 l3 -43 53 -3 52 -3 0 45 0 46 -56 0 -55 0 3 -42z"/>
</g>
</svg>
